<?xml version="1.0" encoding="UTF-8" standalone="no"?>
<svg width="133px" height="46px" viewBox="0 0 133 46" version="1.1" xmlns="http://www.w3.org/2000/svg" xmlns:xlink="http://www.w3.org/1999/xlink">
    <!-- Generator: Sketch 39.1 (31720) - http://www.bohemiancoding.com/sketch -->
    <title>Group</title>
    <desc>Created with Sketch.</desc>
    <defs></defs>
    <g id="Page-1" stroke="none" stroke-width="1" fill="none" fill-rule="evenodd">
        <g id="Group-3" transform="translate(-408.000000, -46.000000)">
            <g id="Group-15" transform="translate(390.000000, 0.000000)">
                <g id="Group" transform="translate(18.000000, 46.000000)">
                    <g id="Group-13" transform="translate(0.857493, 20.087888)">
                        <path d="M48.48797,15.0028565 C45.3912755,15.0028565 43.8512645,17.2739413 43.8512645,20.3393808 C43.8512645,23.5307973 45.3307281,25.7598898 48.48797,25.7598898 C51.6478444,25.7598898 53.1229204,23.5307973 53.1229204,20.3393808 C53.1229204,17.2739413 51.5846645,15.0028565 48.48797,15.0028565 M48.48797,23.6742711 C47.6648758,23.6742711 47.2989587,22.9376558 47.2989587,20.338506 C47.2989587,17.9659398 47.5429034,17.0876003 48.48797,17.0876003 C49.4312816,17.0876003 49.6761038,17.9659398 49.6761038,20.338506 C49.6761038,22.9385306 49.3075542,23.6742711 48.48797,23.6742711" id="Shape" fill="#0067B1"></path>
                        <path d="M55.2640183,14.1271416 L55.2640183,15.2740569 L53.9091597,15.2740569 L53.9091597,17.6072553 L55.2640183,17.6072553 L55.2640183,25.5376804 L58.5871076,25.5376804 L58.5871076,17.6072553 L60.3956333,17.6072553 L60.3956333,15.2740569 L58.5871076,15.2740569 L58.5871076,14.2329973 C58.5871076,13.6092363 58.9030073,13.2680487 59.7778739,13.2680487 C59.9621487,13.2680487 60.2078485,13.3082913 60.3947558,13.3511585 L60.3947558,10.815872 C59.8586038,10.7546332 59.3654493,10.6916447 58.7117125,10.6916447 C56.5170871,10.6925196 55.2640183,11.6119765 55.2640183,14.1271416" id="Shape" fill="#0067B1"></path>
                        <path d="M19.8367456,18.1575297 C19.8367456,15.8881946 17.7667251,15.0308514 15.7739245,15.0308514 C13.8890564,15.0308514 12.0410432,15.8462023 11.6733711,17.871457 L14.5638532,18.4645986 C14.5998307,17.8653332 14.8551829,17.1164701 15.6528297,17.1164701 C16.2267141,17.1164701 16.5127788,17.5232707 16.5127788,18.1356587 L16.5127788,19.0183723 C14.317276,19.272076 11.2916589,20.0620565 11.2188265,22.7329432 C11.1679316,24.620848 12.4306528,25.7362691 14.0873712,25.7362691 C15.0675377,25.7362691 16.0485818,25.1964928 16.6154462,24.6007267 C16.6356287,24.7713205 16.6575662,25.2559819 16.7198686,25.5394301 L20.1456253,25.5394301 C20.0201429,25.3994557 19.8358681,25.0495197 19.8358681,23.8833579 L19.8358681,18.1575297 L19.8367456,18.1575297 Z M16.5136563,22.9236583 C16.2311016,23.2945905 15.825697,23.5614167 15.4474949,23.5614167 C14.8516729,23.5614167 14.4831233,23.1887349 14.4831233,22.4731157 C14.4831233,21.1626053 15.3518475,20.7234356 16.5127788,20.6114561 L16.5127788,22.9236583 L16.5136563,22.9236583 Z" id="Shape" fill="#0067B1"></path>
                        <path d="M27.9860801,15.0291017 C26.6900138,15.0291017 25.7747822,15.6274923 25.0903329,16.3229901 L25.0473355,16.3229901 L25.030663,15.2731821 L21.7786512,15.2731821 L21.7786512,25.5376804 L25.1017404,25.5376804 L25.1017404,18.1977724 C25.4053551,17.8093434 25.8090047,17.560014 26.1828193,17.560014 C26.7382763,17.560014 26.9488761,17.8845796 26.9488761,18.4698476 L26.9488761,25.5368056 L30.2719653,25.5368056 L30.2719653,17.4182899 C30.2728428,16.0106722 29.4409737,15.0291017 27.9860801,15.0291017" id="Shape" fill="#0067B1"></path>
                        <polygon id="Shape" fill="#0067B1" points="41.4504269 15.2731821 38.1457651 15.2731821 35.7010525 18.3753649 35.6606876 18.3753649 35.6606876 10.9794671 32.3358433 10.9794671 32.3358433 25.5376804 35.6606876 25.5376804 35.6606876 21.8616025 36.3591769 21.060249 36.3995418 21.060249 38.0194052 25.5376804 41.4662219 25.5376804 38.6705096 18.4331043"></polygon>
                        <path d="M7.67723998,17.9659398 L7.67723998,17.8522106 C8.73550394,17.4410357 10.0605276,16.438469 10.0605276,14.5356919 C10.0605276,12.5253095 8.35993431,10.9785923 5.77306684,10.9785923 L0,10.9785923 L0,25.5385552 L5.62564699,25.5385552 C8.39854427,25.5385552 10.4071398,24.1361866 10.4071398,21.6437673 C10.4071398,19.7777335 9.25937093,18.4855948 7.67723998,17.9659398 L7.67723998,17.9659398 Z M3.58721648,13.5558711 L4.87977272,13.5558711 C5.7186619,13.5558711 6.65846348,13.780705 6.65846348,15.169951 C6.65846348,16.0307936 6.13108649,16.7455379 4.7964103,16.7455379 L3.58721648,16.7455379 L3.58721648,13.5558711 L3.58721648,13.5558711 Z M4.94119766,22.8405485 L3.58721648,22.8405485 L3.58721648,19.1994642 L4.94119766,19.1994642 C6.13108649,19.1994642 6.80325083,19.9159582 6.80325083,20.9998851 C6.80325083,22.4914873 5.73972188,22.8405485 4.94119766,22.8405485 L4.94119766,22.8405485 Z" id="Shape" fill="#0067B1"></path>
                        <path d="M131.068537,23.8833579 L131.068537,18.1575297 C131.068537,15.8881946 128.999394,15.0308514 127.008348,15.0308514 C125.120847,15.0308514 123.272834,15.8462023 122.904285,17.871457 L125.797399,18.4645986 C125.832499,17.8653332 126.086096,17.1164701 126.885498,17.1164701 C127.45675,17.1164701 127.747202,17.5232707 127.747202,18.1356587 L127.747202,19.0183723 C125.549067,19.272076 122.520817,20.0620565 122.44974,22.7329432 C122.398845,24.620848 123.660689,25.7362691 125.319162,25.7362691 C126.299329,25.7362691 127.278618,25.1964928 127.84987,24.6007267 C127.866542,24.7713205 127.889357,25.2559819 127.949905,25.5394301 L131.374784,25.5394301 C131.253689,25.3985808 131.068537,25.0495197 131.068537,23.8833579 L131.068537,23.8833579 Z M127.74808,22.9236583 C127.461138,23.2945905 127.057488,23.5614167 126.681041,23.5614167 C126.083464,23.5614167 125.714914,23.1887349 125.714914,22.4731157 C125.714914,21.1626053 126.584516,20.7234356 127.747202,20.6114561 L127.747202,22.9236583 L127.74808,22.9236583 Z" id="Shape" fill="#0067B1"></path>
                        <path d="M94.8383521,15.0028565 C91.7811451,15.0028565 90.2613166,17.4567829 90.2613166,20.3612518 C90.2613166,23.2036072 91.6977826,25.7607646 94.876962,25.7607646 C97.8350116,25.7607646 98.8581756,23.4293159 99.0038405,22.9577771 L96.7627077,22.1389268 C96.5986153,22.9665255 95.921186,23.549169 95.1200293,23.549169 C93.7818431,23.549169 93.5387758,22.0313215 93.5844058,21.1179885 L99.1451178,21.1179885 L99.1451178,20.4216158 C99.1451178,17.7437304 98.0385914,15.0028565 94.8383521,15.0028565 M96.0677284,19.1530977 L93.5844058,19.1530977 C93.5335108,18.1872743 93.8722255,17.0884752 94.8155371,17.0884752 C95.9641835,17.0884752 96.0993183,18.2003969 96.0677284,19.1530977" id="Shape" fill="#0067B1"></path>
                        <rect id="Rectangle-path" fill="#0067B1" x="108.107894" y="15.2740569" width="3.32133425" height="10.2644983"></rect>
                        <rect id="Rectangle-path" fill="#0067B1" x="108.107894" y="10.9785923" width="3.32133425" height="2.94471161"></rect>
                        <path d="M117.673512,17.0884752 C118.209664,17.0884752 118.474669,17.3754227 118.637006,17.7822234 C118.782671,18.172402 118.801976,18.6623124 118.801976,19.0717376 L121.635421,19.0717376 C121.635421,18.0499244 121.100146,15.0037313 117.575232,15.0037313 C114.43554,15.0037313 112.878857,17.805844 112.878857,20.606207 C112.878857,23.1414935 114.434663,25.7607646 117.431322,25.7607646 C119.851465,25.7607646 121.286176,24.4528787 121.534508,21.9578349 L118.949396,21.5886524 C118.949396,22.3663852 118.846729,23.549169 117.675267,23.549169 C116.816196,23.549169 116.446768,22.7959317 116.446768,20.4828546 C116.444136,18.4383534 116.567863,17.0884752 117.673512,17.0884752" id="Shape" fill="#0067B1"></path>
                        <path d="M66.1713327,10.9794671 L62.7464535,25.5385552 L65.9458154,25.5385552 L66.5828798,22.5955933 L69.9673939,22.5955933 L70.5421559,25.5385552 L74.1320049,25.5385552 L71.0116179,10.9794671 L66.1713327,10.9794671 L66.1713327,10.9794671 Z M67.0962168,20.0183145 L68.3299805,14.086899 L68.4036905,14.086899 L69.4540569,20.0183145 L67.0962168,20.0183145 L67.0962168,20.0183145 Z" id="Shape" fill="#0067B1"></path>
                        <path d="M103.816923,16.6633029 L103.761641,16.6633029 L103.728296,15.2731821 L100.512262,15.2731821 L100.512262,25.5376804 L103.838861,25.5376804 L103.838861,18.8915205 C104.229348,18.4278553 104.813762,18.0962909 105.661426,18.0962909 C106.234433,18.0962909 106.638961,18.2345157 107.016285,18.3806139 L107.016285,15.0291017 C105.735136,15.0291017 104.49523,15.5793761 103.816923,16.6633029" id="Shape" fill="#0067B1"></path>
                        <path d="M86.4994777,15.0291017 C85.1077641,15.0291017 84.1153126,15.7762151 83.5344081,16.4026006 L83.4914107,16.4026006 C83.177266,15.6108703 82.5033467,15.0291017 81.4933451,15.0291017 C80.2551939,15.0291017 79.2136024,15.6668601 78.5186231,16.3194908 L78.4765031,16.3194908 L78.4589531,15.2740569 L75.2157163,15.2740569 L75.2157163,25.5385552 L78.4765031,25.5385552 L78.4765031,18.2178937 C78.7564253,17.8399628 79.2557223,17.5862592 79.6040895,17.5862592 C80.2209714,17.5862592 80.3841862,17.9528172 80.3841862,18.5057161 L80.3841862,25.5385552 L83.646728,25.5385552 L83.646728,18.2178937 C83.8625928,17.9344455 84.3373199,17.5862592 84.7830894,17.5862592 C85.3876863,17.5862592 85.5561662,17.9528172 85.5561662,18.5057161 L85.5561662,25.5385552 L88.8160755,25.5385552 L88.8160755,17.3561762 C88.8160755,15.9380605 87.8806614,15.0291017 86.4994777,15.0291017" id="Shape" fill="#0067B1"></path>
                        <g id="Group-14" transform="translate(68.318283, 0.000000)" fill="#E31836">
                            <path d="M0.677305245,1.90652643 C0.677305245,1.394745 1.10991232,0.978321132 1.6399218,0.978321132 C2.16993128,0.978321132 2.60166086,1.394745 2.60166086,1.90652643 C2.60166086,2.42705626 2.16993128,2.84435496 1.6399218,2.84435496 C1.10991232,2.84435496 0.677305245,2.42705626 0.677305245,1.90652643 M0.858947567,1.90652643 C0.858947567,2.33257353 1.20643723,2.66063855 1.6399218,2.66063855 C2.06989638,2.66063855 2.41650854,2.33257353 2.41650854,1.90652643 C2.41650854,1.49447676 2.06989638,1.16291238 1.6399218,1.16291238 C1.20731473,1.16291238 0.858947567,1.49447676 0.858947567,1.90652643" id="Shape"></path>
                            <path d="M2.11903633,2.43143046 L1.93914901,2.43143046 L1.63114681,1.95026843 L1.4407295,1.95026843 L1.4407295,2.43143046 L1.28277965,2.43143046 L1.28277965,1.38862112 L1.75136419,1.38862112 C1.84086911,1.38862112 1.93300651,1.39387016 2.01549143,1.43936184 C2.09358886,1.48572836 2.13483132,1.57671173 2.13483132,1.66507057 C2.13483132,1.8689083 1.98477896,1.94589423 1.79436165,1.95114327 L2.11903633,2.43143046 L2.11903633,2.43143046 Z M1.61798432,1.82254178 C1.76715918,1.82254178 1.97424897,1.84791214 1.97424897,1.66244605 C1.97424897,1.525971 1.85490909,1.5084742 1.71977422,1.5084742 L1.441607,1.5084742 L1.441607,1.82166694 L1.61798432,1.82166694 L1.61798432,1.82254178 Z" id="Shape"></path>
                        </g>
                    </g>
                    <g id="Group-12" transform="translate(45.266041, 0.508317)">
                        <path d="M17.1888166,5.50711813 C18.5068203,6.02589828 19.809029,6.58317139 21.0954427,7.17631295 C16.9992768,8.83500968 13.0426331,10.7981508 9.26850933,13.0464897 C7.99087058,12.3789867 6.69480435,11.7482271 5.38031064,11.1559603 C9.14916944,8.96798537 13.0961606,7.07570634 17.1888166,5.50711813" id="Shape" fill="#0067B1"></path>
                        <path d="M12.3116763,3.7898071 C8.05756051,5.13268658 3.96402702,6.88936541 0.0846033262,9.02047577 C1.32187711,9.4666442 2.54774341,9.94168235 3.75605973,10.4499644 C7.51526604,8.24449265 11.4885822,6.3889569 15.6224806,4.91397657 C14.5291167,4.51329983 13.4234678,4.13886829 12.3116763,3.7898071" id="Shape" fill="#0067B1"></path>
                        <path d="M26.0673529,5.34177336 C22.7258361,3.73031798 19.257082,2.37344106 15.690048,1.29038908 C14.4352243,1.65082318 13.191808,2.04362636 11.9589217,2.47142315 C15.6321331,3.55534997 19.2026771,4.92797401 22.6415962,6.57004879 C23.7718151,6.1378778 24.9151965,5.72670298 26.0673529,5.34177336" id="Shape" fill="#E31836"></path>
                        <path d="M31.519255,3.72156958 C28.1005184,2.23434149 24.5641968,0.990318939 20.9515329,0 C19.800254,0.237081654 18.6568726,0.50215819 17.5213887,0.792605087 C21.1094827,1.83628927 24.5984193,3.15992227 27.9636285,4.7355092 C29.1403549,4.37245058 30.3258562,4.03388748 31.519255,3.72156958" id="Shape" fill="#E31836"></path>
                        <path d="M40.2731864,6.65315859 C31.6956323,9.53575656 23.6594952,13.6413809 16.3894148,18.7810662 C18.2075931,19.8938628 19.9775088,21.0748968 21.7079371,22.3189194 C28.5603279,16.9001601 36.167368,12.3859855 44.3544349,8.95661245 C43.0188813,8.14913508 41.6534926,7.38190036 40.2731864,6.65315859" id="Shape" fill="#E31836"></path>
                        <path d="M34.3746372,3.85891947 C25.4566135,6.21048953 17.0721092,10.0046708 9.51333159,15.0017572 C11.2165574,15.8372295 12.8890708,16.7286915 14.5273617,17.6778929 C21.9352094,12.5653277 30.1556214,8.58480543 38.9235928,5.95941043 C37.4283342,5.21229703 35.9111382,4.50892563 34.3746372,3.85891947" id="Shape" fill="#E31836"></path>
                    </g>
                </g>
            </g>
        </g>
    </g>
</svg>