<?xml version="1.0" encoding="UTF-8" standalone="no"?>
<svg width="120px" height="90px" viewBox="0 0 120 90" version="1.1" xmlns="http://www.w3.org/2000/svg" xmlns:xlink="http://www.w3.org/1999/xlink">
    <!-- Generator: Sketch 39.1 (31720) - http://www.bohemiancoding.com/sketch -->
    <title>chase-logo</title>
    <desc>Created with Sketch.</desc>
    <defs></defs>
    <g id="Page-1" stroke="none" stroke-width="1" fill="none" fill-rule="evenodd">
        <g id="chase-logo" transform="translate(-1.000000, -1.000000)">
            <g id="layer1" transform="translate(0.306872, 0.518905)">
                <g id="logotype" transform="translate(0.405204, 0.357150)">
                    <g id="g17202" transform="translate(0.000000, 0.000000)">
                        <g id="logo" transform="translate(34.857143, 0.000000)" fill="#117ACA">
                            <path d="M18.154799,0.277892457 C17.187964,0.277892457 16.4048141,1.06426823 16.4048141,2.03392875 L16.4048141,14.3499427 L48.8050453,14.3499427 L34.0501068,0.279031164 L18.154799,0.277892457" id="logo-ne"></path>
                            <path d="M49.9904886,18.0758568 C49.9904886,17.103918 49.212964,16.3209429 48.2405038,16.3209429 L35.9781426,16.3209429 L35.9781426,48.855097 L49.9848454,34.0329123 L49.9904886,18.0758568" id="logo-se"></path>
                            <path d="M32.2629361,50.0329526 C33.2275173,50.0329526 34.0106672,49.2454526 34.0106672,48.2735328 L34.0106672,35.9620628 L1.6093002,35.9620628 L16.3664833,50.0306897 L32.2629361,50.0329526" id="logo-sw"></path>
                            <path d="M0.424992709,32.2372693 C0.424992709,33.2080694 1.20814256,33.9989692 2.17723123,33.9989692 L14.4373298,33.9989692 L14.4373298,1.46255043 L0.427246404,16.2802147 L0.424992709,32.2372693" id="logo-nw"></path>
                        </g>
                        <g id="type" transform="translate(0.000000, 66.500000)" fill="#211E1E">
                            <polyline id="H" points="40.7928975 0.462227045 40.7928975 9.29868429 28.4987046 9.29868429 28.4987046 0.462227045 24.0209549 0.458237029 24.0209549 22.7387076 28.4987046 22.7387076 28.4987046 13.1669268 40.7928975 13.1669268 40.7928975 22.7387076 45.2779467 22.7387076 45.2779467 0.462227045 40.7928975 0.462227045"></polyline>
                            <polyline id="E" points="100.361247 0.462227045 100.361247 22.7333894 120.006044 22.7333894 117.517959 18.8125793 104.851623 18.8125793 104.851623 13.1669268 117.116571 13.1669268 117.116571 9.39051589 104.851623 9.39051589 104.851623 4.29120396 117.496699 4.29120396 119.934267 0.462227045 100.361247 0.462227045"></polyline>
                            <path d="M7.3766061,0.456896021 C2.71877901,0.456896021 0.366263278,3.29236414 0.366263278,7.41813972 L0.366263278,15.7348897 C0.366263278,20.5094569 3.39793947,22.7387076 7.35335745,22.7387076 L21.4019649,22.7373767 L18.7975843,18.6648502 L8.22126102,18.6648502 C5.97440357,18.6648502 4.99552531,17.8516747 4.99552531,15.3336176 L4.99552531,7.78812791 C4.99552531,5.35392183 5.81957382,4.40432878 8.28106529,4.40432878 L18.9078998,4.40432878 L21.4086051,0.456896021 L7.3766061,0.456896021" id="C"></path>
                            <path d="M80.7118095,0.451575644 C78.0217019,0.451575644 75.2644799,2.07060564 75.2644799,6.23497604 L75.2644799,7.30500532 C75.2644799,11.6463791 77.9173727,13.3026736 80.5715893,13.3139958 L89.8879293,13.3139958 C90.8555102,13.3139958 91.6416739,13.4750263 91.6416739,15.1126894 L91.6403448,17.0045545 C91.6157565,18.4758554 90.8827567,18.8125793 89.8546964,18.8125793 L77.5983776,18.8125793 L75.0877041,22.7333894 L90.1431168,22.7333894 C93.7735588,22.7333894 96.2383783,20.9247008 96.2383783,16.747031 L96.2383783,15.2118419 C96.2383783,11.1725877 93.9483357,9.26407948 90.3976399,9.26407948 L81.5019553,9.26407948 C80.5157564,9.26407948 79.828616,8.99457422 79.828616,7.53192466 L79.828616,5.99141468 C79.828616,4.74570331 80.2997826,4.29120396 81.4487912,4.29120396 L93.1209644,4.28654317 L95.560531,0.446254735 L80.7118095,0.451575644" id="S"></path>
                            <path d="M58.2872017,0.462227045 L47.7374551,22.7373767 L52.7235704,22.7373767 L54.7783726,18.1371416 L66.242536,18.1371416 L68.2906821,22.7373767 L73.2987435,22.7373767 L62.7244085,0.462227045 L58.2872017,0.462227045 L58.2872017,0.462227045 Z M60.4994866,5.0870773 L64.5532528,14.3454297 L56.4716378,14.3454297 L60.4994866,5.0870773 L60.4994866,5.0870773 Z" id="A"></path>
                        </g>
                    </g>
                </g>
            </g>
        </g>
    </g>
</svg>