<?xml version="1.0" encoding="UTF-8" standalone="no"?>
<svg width="53px" height="53px" viewBox="0 0 53 53" version="1.1" xmlns="http://www.w3.org/2000/svg" xmlns:xlink="http://www.w3.org/1999/xlink">
    <!-- Generator: Sketch 42 (36781) - http://www.bohemiancoding.com/sketch -->
    <title>generic-bank</title>
    <desc>Created with Sketch.</desc>
    <defs>
        <filter x="-50%" y="-50%" width="200%" height="200%" filterUnits="objectBoundingBox" id="filter-1">
            <feOffset dx="1" dy="2" in="SourceAlpha" result="shadowOffsetOuter1"></feOffset>
            <feGaussianBlur stdDeviation="2" in="shadowOffsetOuter1" result="shadowBlurOuter1"></feGaussianBlur>
            <feColorMatrix values="0 0 0 0 0.743649022   0 0 0 0 0.743649022   0 0 0 0 0.743649022  0 0 0 0.5 0" type="matrix" in="shadowBlurOuter1" result="shadowMatrixOuter1"></feColorMatrix>
            <feMerge>
                <feMergeNode in="shadowMatrixOuter1"></feMergeNode>
                <feMergeNode in="SourceGraphic"></feMergeNode>
            </feMerge>
        </filter>
        <circle id="path-2" cx="22.5" cy="22.5" r="22.5"></circle>
        <mask id="mask-3" maskContentUnits="userSpaceOnUse" maskUnits="objectBoundingBox" x="0" y="0" width="45" height="45" fill="white">
            <use xlink:href="#path-2"></use>
        </mask>
    </defs>
    <g id="plaid-borrower-desktop-snowflake" stroke="none" stroke-width="1" fill="none" fill-rule="evenodd">
        <g id="4-longtail" transform="translate(-119.000000, -396.000000)">
            <g id="Group-6" filter="url(#filter-1)" transform="translate(108.000000, 381.000000)">
                <g id="generic-bank" transform="translate(14.000000, 17.000000)">
                    <g>
                        <use id="Oval" stroke="#707884" mask="url(#mask-3)" stroke-width="8" xlink:href="#path-2"></use>
                        <g id="Group" transform="translate(11.000000, 10.000000)" fill="#707884">
                            <path d="M11.6988853,0.149703026 C11.588647,0.0670243277 11.4133321,0.0644658655 11.2996897,0.149703026 L0.799477351,8.02535451 C0.357938202,8.35652957 0.43890404,8.625 1.0030392,8.625 L21.996242,8.625 C22.5502053,8.625 22.6424986,8.35741304 22.1997539,8.02535451 L11.6988853,0.149703026 Z" id="Shape"></path>
                            <path d="M1.4375,20.125 C0.64328125,20.125 0,20.7682813 0,21.5625 L0,22.4972323 C0,22.7749032 0.227639079,23 0.501777604,23 L22.4982224,23 C22.7753465,23 23,22.7753906 23,22.4972323 L23,21.5625 C23,20.7682813 22.356,20.125 21.5617812,20.125 L1.4375,20.125 Z" id="Shape"></path>
                            <rect id="Rectangle-path" x="12.9375" y="10.0625" width="2.875" height="8.625"></rect>
                            <rect id="Rectangle-path" x="18.6875" y="10.0625" width="2.875" height="8.625"></rect>
                            <rect id="Rectangle-path" x="7.1875" y="10.0625" width="2.875" height="8.625"></rect>
                            <rect id="Rectangle-path" x="1.4375" y="10.0625" width="2.875" height="8.625"></rect>
                        </g>
                    </g>
                </g>
            </g>
        </g>
    </g>
</svg>