<?xml version="1.0" encoding="UTF-8" standalone="no"?>
<svg width="129px" height="36px" viewBox="0 0 129 36" version="1.1" xmlns="http://www.w3.org/2000/svg" xmlns:xlink="http://www.w3.org/1999/xlink">
    <!-- Generator: Sketch 39.1 (31720) - http://www.bohemiancoding.com/sketch -->
    <title>pnc-logo</title>
    <desc>Created with Sketch.</desc>
    <defs></defs>
    <g id="Page-1" stroke="none" stroke-width="1" fill="none" fill-rule="evenodd">
        <g id="Group-3" transform="translate(-18.000000, -218.000000)">
            <g id="Group-11" transform="translate(0.000000, 165.000000)">
                <g id="pnc-logo" transform="translate(18.000000, 53.000000)">
                    <g id="g4" transform="translate(0.157556, 0.002563)" fill="#FF5400">
                        <path d="M26.4591865,20.0198913 L22.4781283,20.0198913 C22.6438464,19.6084068 22.5617175,19.0323147 22.229586,18.3725718 L19.9898539,14.6658267 L16.2574075,8.15626223 C16.2574075,8.15626223 14.8475871,5.51999156 12.7741989,3.9549897 C14.1011951,4.44944803 30.8557569,14.1706914 30.8557569,14.1706914 C33.593269,15.8186326 35.9980237,19.9375529 26.4591865,20.0198913 L26.4591865,20.0198913 Z M13.8519574,30.4837685 C11.1144453,32.0487496 6.22072771,32.0487496 10.9487272,23.8109089 C11.7779434,22.4091538 12.9392216,20.3504189 12.9392216,20.3504189 C13.2713531,20.7619034 13.7691332,21.0087803 14.5154555,21.0087803 L18.9114,21.0087803 L26.4591865,21.0087803 C26.4591865,21.0087803 29.4459364,21.0910496 31.8513865,20.1035421 C30.7729326,20.926511 13.8519574,30.4837685 13.8519574,30.4837685 L13.8519574,30.4837685 Z M8.12908625,7.74408698 C8.12908625,4.61404183 10.6173606,0.411486562 15.4281914,8.5683684 C16.2574075,10.051771 17.4187553,12.0289274 17.4187553,12.0289274 C16.9209057,12.110575 16.5060194,12.4411027 16.0916895,13.1001548 L13.9348512,16.8898599 L10.1195806,23.3157736 C10.1195806,23.3157736 8.54334663,25.8697128 8.21191051,28.5073028 C8.04549704,27.0232095 8.12908625,7.74408698 8.12908625,7.74408698 L8.12908625,7.74408698 Z M17.6672976,5.68434189e-14 C7.87984852,5.68434189e-14 0,7.82704701 0,17.5489121 C0,27.2701554 7.87984852,35.1800934 17.6672976,35.1800934 C27.455442,35.1800934 35.4181148,27.2701554 35.4181148,17.5489121 C35.4181148,7.82704701 27.455442,5.68434189e-14 17.6672976,5.68434189e-14 L17.6672976,5.68434189e-14 Z" id="path6"></path>
                    </g>
                    <g id="g8" transform="translate(43.454752, 3.792286)" fill="#002FCD">
                        <path d="M5.22585606,27.8474909 L9.7046248,27.8474909 L9.7046248,15.4894173 L12.1100749,15.4894173 C18.4136895,15.4894173 26.7918744,14.9942821 26.7918744,7.82697793 C26.7918744,0.576762136 18.912165,0 12.607855,0 L0,0 L0,0.741355932 C4.47946415,1.23581426 5.22585606,1.89553642 5.22585606,4.44878491 L5.22585606,27.8474909 L5.22585606,27.8474909 Z M9.7046248,4.44878491 C9.7046248,1.97716329 9.95316712,1.6479757 14.1840889,1.6479757 C18.8285757,1.6479757 21.6482863,3.70746351 21.6482863,7.82697793 C21.6482863,13.182355 16.8380814,13.9237454 11.9443569,13.9237454 L9.7046248,13.9237454 L9.7046248,4.44878491 L9.7046248,4.44878491 Z" id="path10"></path>
                    </g>
                    <g id="g12" transform="translate(69.831490, 3.792286)" fill="#002FCD">
                        <path d="M5.22606469,4.94322942 C5.22606469,1.5656788 4.47918598,1.3187812 0,0.741355932 L0,0 L10.4507385,0 L26.7909704,22.6573431 L26.8737251,22.6573431 L26.8737251,0 L29.6115849,0 L29.6115849,27.8474909 L25.6296226,27.8474909 L8.04528841,3.62581593 L7.96253369,3.62581593 L7.96253369,27.8474909 L5.22606469,27.8474909 L5.22606469,4.94322942 L5.22606469,4.94322942 Z" id="path14"></path>
                    </g>
                    <g id="g16" transform="translate(103.921565, 3.380800)" fill="#002FCD">
                        <path d="M24.8841348,27.5169632 C22.3959299,28.1767061 19.9904798,28.6704599 15.0961294,28.6704599 C5.30881941,28.6704599 0,21.8330617 0,13.4286102 C0,5.93149677 3.15232884,0 13.852027,0 C21.7318059,0 24.5524205,3.2945906 24.8841348,6.09610438 L19.8242749,6.09610438 C19.5760108,4.77800013 18.6629272,1.89418945 13.5203127,1.89418945 C7.96322911,1.89418945 5.06055526,6.0144568 5.06055526,12.3580736 C5.06055526,18.2078951 6.55292183,26.8586019 17.9994987,26.8586019 C21.0683774,26.8586019 24.3034609,25.9519821 24.8841348,25.7873745 L24.8841348,27.5169632 L24.8841348,27.5169632 Z" id="path18"></path>
                    </g>
                    <g id="g20" transform="translate(31.809216, 32.115392)" fill="#FF5400">
                        <path d="M0.296804313,1.09008507 L0.601049596,1.09008507 C0.918855526,1.09008507 1.12059623,0.917395587 1.12059623,0.655667413 C1.12059623,0.360921011 0.904599461,0.231403902 0.590896496,0.22732843 C0.446875472,0.22732843 0.344996765,0.241488967 0.296804313,0.254958746 L0.296804313,1.09008507 L0.296804313,1.09008507 Z M0,0.0485602814 C0.150140701,0.017545251 0.365372507,0 0.570520755,0 C0.888326685,0 1.09270997,0.0580236649 1.236731,0.187540774 C1.35286577,0.288736808 1.41802642,0.445193476 1.41802642,0.621267669 C1.41802642,0.924165014 1.22650836,1.12448481 0.984085714,1.2061324 L0.984085714,1.21621746 C1.16134771,1.27693508 1.26725984,1.44023025 1.32157197,1.67764375 C1.39695526,1.99670483 1.4519628,2.21733291 1.5002248,2.30568084 L1.19187655,2.30568084 C1.1538372,2.2381938 1.10362803,2.04395267 1.03839784,1.75929133 C0.96982965,1.44292421 0.846184367,1.32487368 0.576640431,1.31402878 L0.296804313,1.31402878 L0.296804313,2.30568084 L0,2.30568084 L0,0.0485602814 L0,0.0485602814 Z" id="path22"></path>
                    </g>
                    <g id="g24" transform="translate(30.574641, 31.382774)" fill="#FF5400">
                        <path d="M0.285190836,1.89827183 C0.287207547,2.79142181 1.01454501,3.512504 1.9117035,3.51388551 C2.81087871,3.512504 3.5354345,2.79142181 3.53814663,1.89827183 C3.5354345,1.00650336 2.81087871,0.286042853 1.9117035,0.284039655 C1.01454501,0.286042853 0.287207547,1.00650336 0.285190836,1.89827183 L0.285190836,1.89827183 Z M0,1.89827183 C0,0.849977614 0.855016173,0 1.9117035,0 C2.96769542,0 3.82542372,0.849977614 3.82542372,1.89827183 C3.82542372,2.94856924 2.96769542,3.79985929 1.9117035,3.79985929 C0.855016173,3.79985929 0,2.94856924 0,1.89827183 L0,1.89827183 Z" id="path26"></path>
                    </g>
                </g>
            </g>
        </g>
    </g>
</svg>