<?xml version="1.0" encoding="UTF-8" standalone="no"?>
<svg width="139px" height="35px" viewBox="0 0 139 35" version="1.1" xmlns="http://www.w3.org/2000/svg" xmlns:xlink="http://www.w3.org/1999/xlink">
    <!-- Generator: Sketch 39.1 (31720) - http://www.bohemiancoding.com/sketch -->
    <title>us-bank-logo</title>
    <desc>Created with Sketch.</desc>
    <defs></defs>
    <g id="Page-1" stroke="none" stroke-width="1" fill="none" fill-rule="evenodd">
        <g id="Group-3" transform="translate(-208.000000, -219.000000)">
            <g id="Group-10" transform="translate(195.000000, 165.000000)">
                <g id="us-bank-logo" transform="translate(13.000000, 54.000000)">
                    <g id="Group">
                        <polygon id="Shape" fill="#BF4956" points="0 0 0 26.821413 22.800743 34.573913 45.6550358 26.821413 45.6550358 0"></polygon>
                        <path d="M22.6900734,26.4376812 L15.6949385,26.4376812 L15.6949385,24.0477899 C14.3064685,25.9590942 12.3312456,26.9680072 9.50075582,26.9680072 C6.13706292,26.9680072 2.93248945,24.8976812 2.93248945,20.5424638 L2.93248945,7.58333333 L10.1946083,7.58333333 L10.1946083,17.5674638 C10.1946083,19.6925725 10.4615924,21.2318116 12.5982297,21.2318116 C13.7732655,21.2318116 15.4279545,20.6474638 15.4279545,17.5674638 L15.4279545,7.58333333 L22.6900734,7.58333333 L22.6900734,26.4376812 L22.6900734,26.4376812 L22.6900734,26.4376812 Z" id="Shape" fill="#FFFFFF"></path>
                        <path d="M36.1157751,12.9484783 C36.0086755,12.3108696 35.7952412,11.8863043 35.2612732,11.5675 C34.8336397,11.1421739 34.2461218,10.9298913 33.6050541,10.9298913 C32.6977674,10.9298913 31.4691818,11.1961957 31.4691818,12.4173913 C31.4691818,13.0017391 31.8960503,13.2672826 32.3236837,13.4270652 C33.5515043,13.9573913 36.2748945,14.063913 38.7313007,14.9138043 C41.0270574,15.6579348 43.1629297,17.0381522 43.1629297,20.118913 C43.1629297,25.3765217 38.1965676,26.8107609 33.5507393,26.8107609 C29.0655604,26.8107609 24.2062979,25.0052174 24.0464135,20.118913 L30.9359787,20.118913 C31.0430783,20.8097826 31.3100624,21.3401087 31.8968153,21.8186957 C32.2173491,22.0834783 32.9119666,22.3490217 33.8192533,22.3490217 C34.7273051,22.3490217 36.2756595,22.0309783 36.2756595,20.9147826 C36.2756595,19.8001087 35.581807,19.5345652 32.2173491,18.9502174 C26.7177839,17.9945652 24.474047,16.1882609 24.474047,13.0017391 C24.474047,8.22195652 29.6538433,7 33.4451697,7 C37.6098147,7 42.522627,8.11543478 42.6832765,12.9484783 L36.1157751,12.9484783 L36.1157751,12.9484783 L36.1157751,12.9484783 Z" id="Shape" fill="#FFFFFF"></path>
                        <path d="M48.093592,0.583333333 L55.3021611,0.583333333 L55.3021611,9.66507246 L55.4092607,9.66507246 C56.5307467,8.12507246 58.4531847,7.16942029 60.5890571,7.16942029 C66.9438892,7.16942029 68.7056779,12.479529 68.7056779,16.942029 C68.7056779,21.6677899 66.0893873,26.9786594 60.7489415,26.9786594 C57.2253642,26.9786594 56.1038782,25.598442 55.1422766,24.4297464 L55.0887268,24.4297464 L55.0887268,26.4475725 L48.092827,26.4475725 L48.092827,0.583333333 L48.093592,0.583333333 L48.093592,0.583333333 Z M58.2389855,12.427029 C55.6754797,12.427029 55.0887268,14.8169203 55.0887268,17.0477899 C55.0887268,19.2786594 55.6762447,21.7750725 58.2389855,21.7750725 C60.8552761,21.7750725 61.442794,19.2786594 61.442794,17.0477899 C61.442794,14.8169203 60.8560411,12.427029 58.2389855,12.427029 L58.2389855,12.427029 L58.2389855,12.427029 Z" id="Shape" fill="#325390"></path>
                        <path d="M88.7509008,22.0819565 C88.7509008,23.5694565 88.8572354,25.1102174 89.6038727,26.278913 L82.288969,26.278913 C82.1290846,25.8003261 81.9692001,25.0036957 82.02122,24.4733696 L81.9692001,24.4733696 C80.4200807,26.278913 78.1771088,26.8092391 75.8285672,26.8092391 C72.1963603,26.8092391 69.2067511,25.0036957 69.2067511,21.0730435 C69.2067511,15.178587 76.2026509,15.3376087 79.8868776,14.6475 C80.8477142,14.4884783 81.8621005,14.2229348 81.8621005,13.0009783 C81.8621005,11.7265217 80.6878298,11.1954348 79.4592442,11.1954348 C77.2162722,11.1954348 76.7894038,12.3101087 76.7894038,13.1607609 L70.061253,13.1607609 C70.2211374,7.84913043 75.2938342,7 79.780543,7 C88.8572354,7 88.7516657,10.7176087 88.7516657,14.3819565 L88.7516657,22.0819565 L88.7509008,22.0819565 L88.7509008,22.0819565 Z M81.8613355,17.8347826 C80.900499,18.3118478 79.9924473,18.5781522 79.0316107,18.7371739 C77.3761567,19.1084783 76.5216547,19.5338043 76.5216547,20.8090217 C76.5216547,21.658913 77.4840213,22.5072826 78.7646267,22.5072826 C80.4200807,22.5072826 81.7022161,21.6048913 81.8621005,19.5870652 L81.8621005,17.8347826 L81.8613355,17.8347826 L81.8613355,17.8347826 Z" id="Shape" fill="#325390"></path>
                        <path d="M91.4936709,7.42456522 L98.4352559,7.42456522 L98.4352559,9.81445652 L98.5415905,9.81445652 C99.9292955,7.95565217 101.798949,7 104.736538,7 C108.100996,7 111.19694,9.07108696 111.19694,13.3730435 L111.19694,26.278913 L103.989136,26.278913 L103.989136,16.4530435 C103.989136,14.2229348 103.721387,12.7354348 101.639064,12.7354348 C100.356929,12.7354348 98.703005,13.3722826 98.703005,16.3472826 L98.703005,26.278913 L91.4936709,26.278913 L91.4936709,7.42456522 L91.4936709,7.42456522 L91.4936709,7.42456522 Z" id="Shape" fill="#325390"></path>
                        <polygon id="Shape" fill="#325390" points="113.780591 0.583333333 120.98763 0.583333333 120.98763 13.1178986 125.580673 7.59398551 133.750844 7.59398551 127.022693 14.7111594 134.76523 26.4483333 126.060327 26.4483333 122.269765 19.7032246 120.98763 21.0842029 120.98763 26.4483333 113.780591 26.4483333"></polygon>
                        <path d="M138.150853,23.9176812 C138.417072,24.1839855 138.470622,24.5035507 138.470622,24.9281159 C138.470622,25.2994203 138.417072,25.6174638 138.150853,25.8837681 C137.776004,26.2550725 137.509785,26.3090942 137.082917,26.3090942 C136.761618,26.3090942 136.388299,26.2558333 136.1741,25.8837681 C135.800782,25.6174638 135.746467,25.2994203 135.746467,24.9281159 C135.746467,24.5027899 135.800017,24.1832246 136.1741,23.9176812 C136.441849,23.6528986 136.761618,23.4938768 137.082917,23.4938768 C137.509785,23.4938768 137.776004,23.6528986 138.150853,23.9176812 L138.150853,23.9176812 L138.150853,23.9176812 Z M138.310737,23.7586594 C137.989439,23.4938768 137.509785,23.3333333 137.082917,23.3333333 C136.656048,23.3333333 136.228415,23.4938768 135.960666,23.7586594 C135.640897,24.0782246 135.481013,24.5035507 135.481013,24.9281159 C135.481013,25.3519203 135.640897,25.7764855 135.960666,26.0427899 C136.228415,26.4140942 136.655283,26.5731159 137.082917,26.5731159 C137.51055,26.5731159 137.990204,26.4140942 138.310737,26.0427899 C138.578487,25.7764855 138.738371,25.3519203 138.738371,24.9281159 C138.738371,24.5027899 138.578487,24.0782246 138.310737,23.7586594 L138.310737,23.7586594 L138.310737,23.7586594 Z M137.349901,24.8748551 L137.028602,24.8748551 L136.760853,24.8748551 L136.760853,24.2372464 L137.028602,24.2372464 C137.188487,24.2372464 137.349901,24.2372464 137.456236,24.3430072 C137.509785,24.3430072 137.509785,24.4502899 137.509785,24.6093116 C137.509785,24.6618116 137.456236,24.7675725 137.349901,24.8748551 L137.349901,24.8748551 L137.349901,24.8748551 Z M136.441849,25.7764855 L136.761618,25.7764855 L136.761618,25.1388768 L137.029367,25.1388768 C137.189252,25.1388768 137.297116,25.1388768 137.350666,25.1921377 C137.457001,25.1921377 137.51055,25.3511594 137.51055,25.563442 L137.51055,25.7239855 L137.51055,25.7757246 L137.51055,25.7757246 L137.51055,25.7757246 L137.883869,25.7757246 C137.776004,25.7757246 137.776004,25.7239855 137.776004,25.7239855 L137.776004,25.563442 L137.776004,25.4576812 C137.776004,25.3503986 137.776004,25.2986594 137.723985,25.1913768 C137.61612,25.0323551 137.51055,25.0323551 137.456236,25.0323551 C137.509785,24.9265942 137.61612,24.9265942 137.723985,24.8733333 C137.776004,24.8733333 137.883869,24.6610507 137.883869,24.502029 C137.883869,24.3414855 137.776004,24.1824638 137.51055,24.0767029 C137.457001,24.0767029 137.297116,24.023442 137.082917,24.023442 L136.441849,24.023442 L136.441849,25.7764855 L136.441849,25.7764855 L136.441849,25.7764855 Z" id="Shape" fill="#325390"></path>
                    </g>
                </g>
            </g>
        </g>
    </g>
</svg>