<?xml version="1.0" encoding="UTF-8" standalone="no"?>
<svg width="78px" height="80px" viewBox="0 0 78 80" version="1.1" xmlns="http://www.w3.org/2000/svg" xmlns:xlink="http://www.w3.org/1999/xlink">
    <!-- Generator: Sketch 39.1 (31720) - http://www.bohemiancoding.com/sketch -->
    <title>USAA</title>
    <desc>Created with Sketch.</desc>
    <defs></defs>
    <g id="Page-1" stroke="none" stroke-width="1" fill="none" fill-rule="evenodd">
        <g id="Group-3" transform="translate(-434.000000, -196.000000)" fill="#004264">
            <g id="Group-18" transform="translate(390.000000, 165.000000)">
                <g id="USAA" transform="translate(44.000000, 31.000000)">
                    <path d="M0.557,58.396 L0.557,71.482 C0.557,78.793 5.018,80 8.754,80 C14.276,80 16.833,76.348 16.833,71.407 L16.833,58.396 L13.177,58.396 L13.177,71.847 C13.177,73.548 12.622,76.721 8.754,76.658 C5.235,76.597 4.584,73.353 4.584,71.275 L4.584,58.396 L0.557,58.396 Z" id="Shape"></path>
                    <path d="M32.097,59.257 C32.097,59.257 29.764,58.091 27.114,58.091 C23.814,58.091 19.662,59.794 19.662,64.425 C19.662,67.641 22.025,69.166 23.64,69.948 C24.493,70.367 25.537,70.834 26.39,71.294 C26.831,71.532 28.585,72.124 28.585,74.031 C28.585,76.062 26.361,76.758 25.362,76.758 C21.799,76.758 19.374,75.134 19.374,75.134 L19.747,79.215 C19.747,79.215 21.202,79.956 25.561,79.959 C29.718,79.948 32.716,77.278 32.716,73.596 C32.716,70.763 30.785,69.083 29.137,68.283 C27.837,67.641 27.082,67.301 25.955,66.767 C24.826,66.238 23.662,65.316 23.662,63.889 C23.662,62.363 25.055,61.269 27.114,61.269 C30.14,61.269 31.358,62.635 32.097,63.068 L32.097,59.257 Z" id="Shape"></path>
                    <path d="M61.83,58.362 L57.443,58.362 L58.143,60.132 L51.335,78.321 L44.314,58.362 L39.928,58.362 L40.627,60.132 L33.368,79.525 L37.331,79.525 L38.599,75.833 L46.104,75.833 L47.363,79.525 L54.849,79.525 L56.119,75.833 L63.622,75.833 L64.886,79.525 L69.274,79.525 L61.83,58.362 Z M39.59,72.967 L42.503,64.678 L45.097,72.967 L39.59,72.967 Z M57.11,72.967 L60.017,64.678 L62.616,72.967 L57.11,72.967 Z" id="Shape"></path>
                    <path d="M0.335,34.594 L0.52,41.207 C0.52,41.207 2.142,40.007 3.954,40.007 C5.774,40.007 7.821,41.314 7.821,41.314 L24.07,50.823 L25.443,44.847 L7.821,34.537 C7.821,34.537 5.782,33.237 3.954,33.237 C2.131,33.237 0.335,34.594 0.335,34.594" id="Shape"></path>
                    <path d="M0.335,25.948 L0.52,32.561 C0.52,32.561 2.142,31.362 3.954,31.362 C5.774,31.362 7.821,32.668 7.821,32.668 L25.822,43.2 L27.193,37.225 L7.821,25.892 C7.821,25.892 5.782,24.591 3.954,24.591 C2.131,24.591 0.335,25.948 0.335,25.948" id="Shape"></path>
                    <path d="M0.335,17.305 L0.52,23.918 C0.52,23.918 2.142,22.719 3.954,22.719 C5.774,22.719 7.821,24.022 7.821,24.022 L27.577,35.588 L28.947,29.609 L7.821,17.243 C7.821,17.243 5.782,15.947 3.954,15.947 C2.131,15.947 0.335,17.305 0.335,17.305" id="Shape"></path>
                    <path d="M34.199,6.779 L36.008,14.585 L60.753,29.056 C60.753,29.056 62.7,30.356 64.607,30.356 C66.52,30.356 68.233,28.996 68.233,28.996 L68.049,22.384 C68.049,22.384 66.494,23.584 64.607,23.584 C62.723,23.584 60.753,22.281 60.753,22.281 L41.608,11.077 L40.286,6.058 C40.286,5.847 40.474,5.746 40.545,5.728 L43.786,4.714 C44.222,4.714 44.474,5.088 44.474,5.407 L44.647,5.765 C44.764,5.828 45.251,5.588 45.289,5.568 L45.289,3.588 C45.299,2.278 44.252,1.113 42.823,1.113 L39.586,1.113 C39.586,1.113 39.113,0 37.736,0 L31.586,0 C29.961,0 29.569,1.534 29.569,1.534 L25.299,18.833 L7.823,8.603 C7.823,8.603 5.93,7.301 3.954,7.301 C1.985,7.301 0.335,8.658 0.335,8.658 L0.52,15.269 C0.52,15.269 1.981,14.074 3.954,14.074 C5.932,14.074 7.823,15.38 7.823,15.38 L29.324,27.958 L34.199,6.779 Z" id="Shape"></path>
                    <path d="M36.494,16.726 L38.3,24.564 L60.754,37.698 C60.754,37.698 62.762,39.004 64.609,39.004 C66.454,39.004 68.234,37.639 68.234,37.639 L68.047,31.029 C68.047,31.029 66.61,32.226 64.609,32.226 C62.604,32.226 60.754,30.927 60.754,30.927 L36.494,16.726 Z" id="Shape"></path>
                    <path d="M38.794,26.716 L40.602,34.556 L60.753,46.342 C60.753,46.342 62.766,47.647 64.61,47.647 C66.456,47.647 68.233,46.286 68.233,46.286 L68.051,39.674 C68.051,39.674 66.61,40.869 64.61,40.869 C62.605,40.869 60.753,39.568 60.753,39.568 L38.794,26.716 Z" id="Shape"></path>
                    <path d="M41.1,36.715 L42.908,44.544 L60.75,54.988 C60.75,54.988 62.766,56.297 64.61,56.297 C66.455,56.297 68.233,54.927 68.233,54.927 L68.051,48.318 C68.051,48.318 66.61,49.519 64.61,49.519 C62.605,49.519 60.75,48.209 60.75,48.209 L41.1,36.715 Z" id="Shape"></path>
                    <path d="M72.498,61.409 L73.064,61.409 C73.713,61.409 74.259,61.175 74.259,60.57 C74.259,60.138 73.946,59.71 73.064,59.71 C72.81,59.71 72.636,59.727 72.498,59.746 L72.498,61.409 Z M72.498,64.13 L71.714,64.13 L71.714,59.22 C72.126,59.159 72.518,59.1 73.106,59.1 C73.847,59.1 74.338,59.255 74.631,59.474 C74.924,59.69 75.081,60.021 75.081,60.49 C75.081,61.138 74.652,61.53 74.124,61.685 L74.124,61.722 C74.554,61.801 74.845,62.192 74.945,62.917 C75.064,63.68 75.18,63.973 75.257,64.13 L74.436,64.13 C74.317,63.973 74.199,63.525 74.103,62.88 C73.983,62.252 73.672,62.016 73.044,62.016 L72.498,62.016 L72.498,64.13 Z M73.319,57.85 C71.384,57.85 69.798,59.513 69.798,61.567 C69.798,63.658 71.384,65.305 73.337,65.305 C75.298,65.323 76.862,63.658 76.862,61.585 C76.862,59.513 75.298,57.85 73.337,57.85 L73.319,57.85 Z M73.337,57.164 C75.747,57.164 77.665,59.122 77.665,61.567 C77.665,64.052 75.747,65.989 73.319,65.989 C70.911,65.989 68.957,64.052 68.957,61.567 C68.957,59.122 70.911,57.164 73.319,57.164 L73.337,57.164 Z" id="Shape"></path>
                </g>
            </g>
        </g>
    </g>
</svg>