<?xml version="1.0" encoding="UTF-8" standalone="no"?>
<svg width="131px" height="51px" viewBox="0 0 131 51" version="1.1" xmlns="http://www.w3.org/2000/svg" xmlns:xlink="http://www.w3.org/1999/xlink">
    <!-- Generator: Sketch 39.1 (31720) - http://www.bohemiancoding.com/sketch -->
    <title>wells-logo</title>
    <desc>Created with Sketch.</desc>
    <defs></defs>
    <g id="Page-1" stroke="none" stroke-width="1" fill="none" fill-rule="evenodd">
        <g id="Group-3" transform="translate(-212.000000, -46.000000)" fill="#CD1309">
            <g id="Group-9" transform="translate(195.000000, 0.000000)">
                <g id="wells-logo" transform="translate(17.000000, 46.000000)">
                    <g id="Group-7" transform="translate(4.000000, 28.000000)">
                        <path d="M19.8957771,8.91015873 C19.8957771,7.16374603 19.6773086,5.63752381 19.021903,4.3271746 C18.1480289,3.23485714 16.6165862,3.02114286 14.2112693,3.02114286 L8.74523013,3.02114286 L8.74523013,9.56425397 L10.4951414,9.56425397 C13.1189267,9.56425397 13.5558638,8.91015873 13.5558638,5.63968254 L15.7427121,5.63968254 L15.7427121,16.547746 L13.5558638,16.547746 C13.5558638,12.8368889 13.1189267,11.9647619 10.4951414,11.9647619 L8.74523013,11.9647619 L8.74523013,17.6400635 C8.74523013,19.6045079 8.96369866,19.6045079 10.9320784,19.6045079 L13.3373953,19.6045079 L13.3373953,22.2187302 L5.68434189e-14,22.2187302 L5.68434189e-14,19.6045079 L1.31081115,19.6045079 C3.06072239,19.6045079 3.71612797,19.3843175 3.71612797,17.6400635 C3.71612797,4.7632381 3.71612797,17.6400635 3.71612797,4.7632381 C3.71612797,3.02114286 3.05855934,2.80311111 1.31081115,2.80311111 L5.68434189e-14,2.80311111 L5.68434189e-14,0.404761905 L22.3010939,0.404761905 L22.3010939,8.91231746 L19.8957771,8.91231746 L19.8957771,8.91015873 L19.8957771,8.91015873 Z" id="Shape"></path>
                        <path d="M70.2538535,16.1138413 L68.2854737,16.1138413 C68.2854737,18.5121905 68.2854737,19.6045079 66.9746625,19.6045079 C66.319257,19.6045079 65.6638514,18.9460952 65.6638514,17.6400635 L65.6638514,16.547746 C65.4453829,13.4953016 64.7899773,12.1849524 61.0716863,11.0926349 C65.2247513,10.6587302 67.6300681,8.69428571 67.6300681,5.64184127 C67.6300681,1.93098413 65.0062828,0.404761905 59.5402436,0.404761905 L44.4551001,0.404761905 L44.4551001,2.80311111 L46.2050114,2.80311111 C48.1733911,2.80311111 48.3918596,3.02330159 48.3918596,4.7632381 L48.3918596,17.6400635 C48.3918596,19.1662857 47.5179856,19.6045079 46.2050114,19.6045079 L44.6735686,19.6045079 C43.3627575,19.6045079 42.7051889,19.1662857 42.0497833,17.6400635 L35.0544644,0.404761905 L29.8068937,0.404761905 L22.3724747,17.6400635 C21.7170691,19.1662857 21.2801321,19.6045079 19.5302208,19.6045079 L18.6563467,19.6045079 L18.6563467,22.2187302 L30.0253622,22.2187302 L30.0253622,19.6045079 L27.6200454,19.6045079 C26.5277028,19.6045079 25.8701342,19.6045079 25.8701342,18.9460952 C25.8701342,18.7259048 26.0886027,18.292 26.3070712,17.8537778 L27.3994138,15.2352381 L35.7077069,15.2352381 L36.8000495,17.6379048 C37.0185181,18.0718095 37.0185181,18.5100317 37.0185181,18.7259048 C37.0185181,19.6023492 36.3631125,19.6023492 35.2686068,19.6023492 L32.86329,19.6023492 L32.86329,22.2165714 L57.5675377,22.2165714 L57.5675377,19.6023492 L55.5991579,19.6023492 C53.6307781,19.6023492 53.4123096,19.6023492 53.4123096,17.6379048 L53.4123096,11.9626032 L55.5991579,11.9626032 C59.3152859,11.9626032 60.4097915,12.6210159 60.6282601,16.3253968 L60.6282601,18.723746 C60.8467286,21.7805079 62.8151084,22.6526349 65.8758308,22.6526349 C68.497453,22.6526349 70.2473643,21.1264127 70.2473643,16.9773333 C70.2538535,16.7657778 70.2538535,16.3275556 70.2538535,16.1138413 L70.2538535,16.1138413 Z M28.277614,12.6210159 L31.7752735,4.3271746 L35.0544644,12.6210159 L28.277614,12.6210159 L28.277614,12.6210159 Z M58.0109639,9.34622222 L53.4187988,9.5664127 L53.4187988,2.80311111 L58.0109639,2.80311111 C61.0716863,2.80311111 62.603129,3.6752381 62.603129,6.07574603 L62.603129,6.29593651 C62.6009659,8.47409524 61.0716863,9.34622222 58.0109639,9.34622222 L58.0109639,9.34622222 Z" id="Shape"></path>
                        <path d="M89.9657709,7.41739683 C88.8712652,4.1447619 86.68658,2.61853968 83.1889205,2.61853968 C79.6912611,2.61853968 76.8468442,5.45511111 76.8468442,11.1260952 C76.8468442,16.8013968 79.0336925,19.6379683 83.1889205,19.8538413 C86.0311744,19.8538413 88.6549598,18.327619 88.6549598,15.9292698 L88.6549598,14.6189206 C88.6549598,13.0926984 88.4343282,13.0926984 86.2496429,13.0926984 L85.1573003,13.0926984 L85.1573003,10.6943492 L95.4318101,10.6943492 L95.4318101,13.0926984 L94.557936,13.0926984 C93.0286563,13.0926984 92.8080248,13.0926984 92.8080248,14.8391111 L92.8080248,22.0406349 L90.839645,22.0406349 L89.7451393,20.2942222 C87.7767595,21.8204444 84.9345057,22.6925714 82.3107203,22.6925714 C79.2499979,22.6925714 76.8446811,21.600254 74.8784644,19.4199365 C72.6916161,17.2353016 71.380805,14.3987302 71.380805,11.1260952 C71.380805,7.63542857 72.4731476,5.01688889 74.6599959,2.83657143 C76.6283756,0.872126984 79.4706295,0 82.5313519,0 C84.9345057,0 87.7789226,0.654095238 89.3082023,2.39834921 L90.4005449,0 L92.1504561,0 L92.1504561,7.41739683 L89.9657709,7.41739683 L89.9657709,7.41739683 Z" id="Shape"></path>
                        <path d="M109.830184,22.472381 C102.616396,22.472381 96.9318885,18.1095873 96.9318885,11.1260952 C96.9318885,4.36279365 102.616396,0 109.830184,0 C117.043971,0 122.51001,4.36279365 122.51001,11.3462857 C122.51001,18.1095873 117.043971,22.472381 109.830184,22.472381 L109.830184,22.472381 Z M117.26244,11.3462857 C117.26244,3.49066667 112.014869,2.61853968 109.828021,2.61853968 C105.674956,2.61853968 102.393602,5.67530159 102.393602,11.3462857 C102.393602,17.0172698 105.674956,20.0740317 109.828021,20.0740317 C112.017032,20.0740317 117.26244,18.9817143 117.26244,11.3462857 L117.26244,11.3462857 Z" id="Shape"></path>
                    </g>
                    <g id="Group-6">
                        <path d="M81.6423364,18.2455873 C80.9869309,19.5537778 79.4554881,19.7739683 76.8317028,19.7739683 L71.3656636,19.7739683 L71.3656636,5.15504762 C71.3656636,3.41079365 71.8047637,3.19060317 73.9894489,3.19060317 L75.5208916,3.19060317 L75.5208916,0.572063492 L62.404128,0.572063492 L62.404128,3.19060317 L63.4964706,3.19060317 C65.4648504,3.19060317 66.557193,3.19060317 66.557193,5.15504762 L66.557193,18.0297143 C66.557193,19.7739683 65.6833189,19.992 63.7149391,19.992 L62.6204334,19.992 L62.6204334,22.3925079 L85.1399959,22.3925079 L85.1399959,13.6647619 L82.5162105,13.6647619 C82.5162105,15.6270476 82.297742,16.9373968 81.6423364,18.2455873 L81.6423364,18.2455873 Z" id="Shape"></path>
                        <path d="M53.0013292,19.7739683 L46.0060103,19.7739683 L46.0060103,12.3544127 L47.537453,12.3544127 C50.1612384,12.3544127 50.5981754,12.7904762 50.816644,16.4991746 L53.2219608,16.4991746 L53.2219608,5.58895238 L50.816644,5.58895238 C50.5981754,8.8615873 50.1612384,9.73371429 47.537453,9.73371429 L46.0060103,9.73371429 L46.0060103,3.18844444 L51.9089866,3.18844444 C56.2805201,3.18844444 57.5934943,4.06057143 57.8119628,9.07961905 L60.2172797,9.07961905 L60.2172797,0.572063492 L38.5737544,0.572063492 L27.8601445,0.572063492 L27.8601445,3.19060317 L29.3915872,3.19060317 C30.7023983,3.19060317 31.1414985,3.41079365 31.1414985,4.06273016 C31.1414985,4.50095238 31.1414985,4.93701587 30.9230299,5.80914286 L26.7699649,16.7193651 C26.7699649,16.7193651 26.7699649,16.7193651 26.5514964,16.7193651 C24.5831166,11.264254 21.9593313,4.93701587 21.9593313,4.93701587 C21.7408627,4.50095238 21.7408627,4.2807619 21.7408627,4.06273016 C21.7408627,3.40863492 22.1777998,3.19060317 23.2723055,3.19060317 L25.0222167,3.19060317 L25.0222167,0.572063492 L13.4347327,0.572063492 L13.4347327,3.19060317 L14.9661754,3.19060317 C16.7160867,3.19060317 17.3714923,4.06273016 17.5899608,5.80914286 L13.2184272,16.7193651 C13.2184272,16.7193651 13.2184272,16.7193651 12.9999587,16.7193651 C11.0315789,10.8281905 8.4077936,4.71898413 8.4077936,4.71898413 C8.18932508,4.50095238 8.4077936,4.28292063 8.4077936,4.06488889 C8.18932508,3.41079365 8.84473065,3.1927619 10.1577049,3.1927619 L11.0315789,3.1927619 L11.0315789,0.572063492 L0.0930113519,0.572063492 L0.0930113519,3.19060317 L0.5299484,3.19060317 C2.06139112,3.19060317 3.37003922,4.06273016 4.02760784,6.0271746 L10.5859897,22.3903492 L14.5205862,22.3903492 L19.3312198,10.3899683 L24.360322,22.3903492 L28.2949185,22.3903492 L34.4163633,5.80698413 C35.2902374,3.84253968 35.7271744,3.18844444 37.6955542,3.18844444 L37.9140227,3.18844444 C39.8824025,3.18844444 40.9747451,3.18844444 40.9747451,5.15288889 C40.9747451,18.0275556 40.9747451,5.15288889 40.9747451,18.0275556 C40.9747451,19.7718095 39.8824025,19.9898413 37.9140227,19.9898413 L36.6032116,19.9898413 L36.6032116,22.3903492 L60.6520537,22.3903492 L60.6520537,13.6626032 L58.0282683,13.6626032 C57.8119628,18.0297143 56.9359257,19.7739683 53.0013292,19.7739683 L53.0013292,19.7739683 Z" id="Shape"></path>
                        <path d="M105.909647,13.6647619 C105.909647,15.6292063 105.691179,16.9373968 105.03361,18.247746 C104.378204,19.5559365 102.848925,19.776127 100.225139,19.776127 L94.9775686,19.776127 L94.9775686,5.15720635 C94.9775686,3.41295238 95.4145057,3.1927619 97.3828854,3.1927619 L99.1327967,3.1927619 L99.1327967,0.572063492 L85.7954014,0.572063492 L85.7954014,3.19060317 L87.3268442,3.19060317 C89.0767554,3.19060317 89.9484665,3.19060317 89.9484665,5.15504762 L89.9484665,18.0297143 C89.9484665,19.7739683 89.2930609,19.992 87.3268442,19.992 L86.8877441,19.992 L86.8877441,22.3925079 L108.531269,22.3925079 L108.531269,13.6647619 L105.909647,13.6647619 L105.909647,13.6647619 Z" id="Shape"></path>
                        <path d="M130.832363,16.0631111 C130.832363,21.0821587 126.897767,22.8264127 121.213259,22.8264127 C117.7156,22.8264127 114.21794,20.8619683 113.560372,20.207873 L112.686497,22.3903492 L110.499649,22.3903492 L110.499649,13.6626032 L113.123434,13.6626032 C113.77884,17.8073651 116.621094,19.5537778 120.557853,19.7718095 C124.055513,19.9898413 126.46083,19.1177143 126.679298,16.7172063 C127.116235,13.8806349 124.055513,14.0986667 121.433891,13.6626032 L117.7156,13.0085079 C112.251723,11.9161905 110.283344,10.3899683 110.283344,6.67911111 C110.062712,2.75238095 113.781003,0.13384127 118.589474,0.13384127 C120.994791,0.13384127 124.055513,0.569904762 126.242361,2.31631746 L127.334704,0.569904762 L129.303084,0.569904762 L129.303084,8.20749206 L126.897767,8.20749206 C126.46083,4.06273016 122.087133,2.75238095 118.589474,2.75238095 C115.965688,2.97257143 114.436409,4.2807619 114.436409,6.0271746 C114.436409,7.77142857 115.965688,7.99161905 117.934068,8.42768254 L122.52407,9.08177778 C127.334704,9.95390476 130.832363,10.8281905 130.832363,16.0631111 L130.832363,16.0631111 Z" id="Shape"></path>
                    </g>
                </g>
            </g>
        </g>
    </g>
</svg>